<svg width="800" height="400" viewBox="0 0 800 400" xmlns="http://www.w3.org/2000/svg">
  <defs>
    <linearGradient id="grad1" x1="0%" y1="0%" x2="100%" y2="100%">
      <stop offset="0%" style="stop-color:#70B8B4;stop-opacity:1" />
      <stop offset="50%" style="stop-color:#534694;stop-opacity:1" />
      <stop offset="100%" style="stop-color:#F58220;stop-opacity:1" />
    </linearGradient>
  </defs>

  <g transform="translate(100, 50) scale(0.8)">
    <path d="M150 20 L170 80 L230 100 L280 150 L230 200 L250 300 L150 250 L50 300 L70 200 L20 150 L70 100 L130 80 Z"
          fill="none" stroke="url(#grad1)" stroke-width="15" stroke-linejoin="round"/>
    <path d="M80 180 L220 180 M150 80 L100 220 M150 80 L200 220"
          fill="none" stroke="url(#grad1)" stroke-width="15" stroke-linecap="round"/>
  </g>

  <path d="M350 180 L420 180 L400 220 L470 220"
        fill="none" stroke="#FFD700" stroke-width="12" stroke-linecap="round" stroke-linejoin="round" />

  <g transform="translate(450, 50) scale(0.8)">
    <path d="M150 20 L170 80 L230 100 L280 150 L230 200 L250 300 L150 250 L50 300 L70 200 L20 150 L70 100 L130 80 Z"
          fill="none" stroke="url(#grad1)" stroke-width="15" stroke-linejoin="round"/>
    <path d="M80 180 L220 180 M150 80 L100 220 M150 80 L200 220"
          fill="none" stroke="url(#grad1)" stroke-width="15" stroke-linecap="round"/>
  </g>

  <text x="400" y="360" font-family="Arial, sans-serif" font-size="48" font-weight="bold" fill="#333" text-anchor="middle">AWG-Router</text>
</svg>
