<svg xmlns="http://www.w3.org/2000/svg" width="528" height="288" viewBox="0 0 528 288">
<g>
<path d="M 236.97 222.33 C204.79,229.08 172.96,218.75 149.66,193.98 C136.51,180.00 129.26,164.83 126.97,146.50 C124.47,126.40 128.95,107.82 140.48,90.49 C149.40,77.09 160.78,67.65 177.09,60.15 C189.88,54.26 196.53,52.81 213.00,52.29 C230.92,51.73 241.68,53.80 255.85,60.55 C260.99,63.00 265.52,65.00 265.91,65.00 C266.31,65.00 268.94,66.12 271.77,67.48 C274.61,68.85 277.61,69.70 278.46,69.38 C280.97,68.41 298.70,75.75 299.29,78.00 C299.57,79.07 301.42,80.71 303.40,81.65 C305.38,82.60 307.00,83.71 307.00,84.13 C307.00,86.29 304.40,85.75 299.09,82.48 C294.13,79.41 292.85,79.01 291.09,79.95 C288.38,81.40 288.43,83.48 291.25,85.49 C293.42,87.04 293.43,87.15 291.65,88.49 C290.30,89.50 289.10,89.61 287.26,88.91 C284.06,87.69 283.21,88.50 284.88,91.18 C285.96,92.90 285.95,93.41 284.85,94.09 C283.79,94.75 283.77,95.17 284.76,96.16 C286.37,97.77 286.36,99.33 284.75,98.39 C284.06,97.99 284.36,98.63 285.40,99.83 C286.45,101.02 287.87,102.00 288.55,102.00 C289.23,102.00 290.05,102.68 290.36,103.50 C290.68,104.32 291.63,105.00 292.47,105.00 C293.31,105.00 294.00,105.45 294.00,106.00 C294.00,106.55 294.62,107.00 295.38,107.00 C296.14,107.00 297.32,107.68 298.00,108.50 C299.65,110.49 301.61,110.39 303.77,108.23 C305.55,106.45 310.00,105.48 310.00,106.88 C310.00,107.29 308.38,108.40 306.40,109.34 C303.69,110.64 302.97,111.48 303.47,112.78 C305.65,118.41 307.29,128.80 307.37,137.50 C307.76,177.99 278.14,213.70 236.97,222.33 ZM 214.64 198.31 C216.02,199.69 217.00,197.67 217.00,193.44 C217.00,190.16 217.39,189.00 218.50,189.00 C219.44,189.00 220.00,189.95 220.00,191.56 C220.00,193.01 220.43,193.85 221.00,193.50 C221.61,193.12 222.00,185.57 222.00,174.19 L 222.00 155.50 L 225.75 152.23 L 229.50 148.96 L 224.75 151.18 L 220.00 153.40 L 220.00 162.17 C220.00,169.64 219.77,170.85 218.46,170.35 C217.21,169.87 216.98,168.10 217.21,160.67 L 217.50 151.58 L 225.00 147.30 C236.18,140.92 238.47,141.66 236.48,151.00 L 235.74 154.50 L 238.13 151.04 C239.96,148.40 244.24,145.66 256.34,139.38 C265.04,134.87 272.46,130.85 272.83,130.45 C274.35,128.79 266.97,131.44 257.16,136.07 C251.41,138.78 246.55,141.00 246.35,141.00 C246.16,141.00 246.00,140.14 246.00,139.09 C246.00,136.30 265.04,126.63 270.14,126.83 C273.08,126.95 274.55,126.30 277.20,123.74 C279.05,121.96 281.67,119.70 283.03,118.73 L 285.50 116.95 L 282.00 117.62 C280.08,117.99 277.00,118.24 275.18,118.17 C272.20,118.07 268.17,120.80 266.80,123.85 C266.34,124.88 248.39,133.00 246.58,133.00 C244.00,133.00 244.78,131.33 247.97,130.01 C249.60,129.34 251.45,128.16 252.09,127.39 C254.09,124.99 251.05,125.79 243.02,129.78 C237.47,132.54 234.85,134.55 232.83,137.57 C230.88,140.49 228.10,142.67 222.95,145.32 C215.18,149.32 212.87,149.76 211.07,147.59 C210.13,146.45 210.69,145.44 213.95,142.43 L 218.00 138.68 L 218.00 128.41 C218.00,120.77 218.37,117.77 219.45,116.69 C222.60,113.54 222.56,106.81 219.38,105.59 C213.52,103.34 209.20,111.15 213.59,116.08 C214.63,117.25 214.95,120.24 214.80,127.58 C214.60,137.17 214.59,137.25 214.26,129.75 C213.79,119.06 212.00,119.91 212.00,130.83 C212.00,138.84 211.78,139.86 209.61,141.90 L 207.21 144.15 L 203.21 142.11 C197.90,139.40 195.81,137.18 196.50,135.00 C197.13,133.01 193.67,131.02 181.75,126.55 C174.70,123.91 172.23,124.77 178.75,127.60 C180.81,128.49 181.95,129.43 181.27,129.69 C179.03,130.54 168.54,124.63 166.27,121.25 C165.07,119.46 164.48,118.00 164.95,118.00 C165.42,118.00 170.92,119.94 177.18,122.32 L 188.55 126.63 L 198.78 121.87 C208.47,117.35 209.00,116.94 209.00,114.05 C209.00,111.46 208.62,111.00 206.50,111.00 C205.12,111.00 204.00,110.65 204.00,110.22 C204.00,108.79 215.53,98.00 217.06,98.00 C218.95,98.00 230.30,109.36 229.36,110.31 C228.98,110.69 227.84,111.00 226.83,111.00 C225.49,111.00 225.00,111.75 225.00,113.83 C225.00,116.42 225.82,117.05 235.14,121.52 L 245.29 126.39 L 252.39 123.75 C256.30,122.29 265.35,118.93 272.49,116.28 C281.08,113.09 285.59,110.90 285.80,109.83 C285.98,108.86 282.19,104.19 276.47,98.35 C271.18,92.93 263.84,85.39 260.17,81.58 C252.74,73.87 247.72,71.13 235.45,68.03 C214.54,62.77 189.93,67.32 171.77,79.82 C161.84,86.64 145.43,107.65 147.45,110.92 C147.77,111.43 150.83,112.79 154.26,113.94 C161.90,116.50 163.63,117.49 162.09,118.44 C160.05,119.71 155.51,119.31 152.16,117.58 C146.94,114.88 146.03,116.37 151.00,119.48 C153.48,121.03 156.74,123.58 158.25,125.14 C160.53,127.49 161.63,127.91 164.60,127.53 C168.47,127.03 177.21,130.77 182.00,134.97 C183.38,136.17 183.82,136.81 183.00,136.38 C181.71,135.72 181.69,135.85 182.87,137.31 C184.95,139.87 183.42,139.44 170.95,133.99 C159.46,128.96 158.69,130.38 170.00,135.75 C173.02,137.19 179.62,140.58 184.65,143.29 C192.38,147.46 194.07,148.82 195.55,152.11 C196.51,154.25 197.66,156.00 198.09,156.00 C199.49,156.00 195.85,146.56 193.73,144.71 C192.25,143.42 191.98,142.62 192.77,141.83 C194.23,140.37 198.32,141.51 201.52,144.26 C203.83,146.25 204.01,146.85 203.07,149.32 C201.37,153.79 201.78,159.45 204.00,162.27 C205.10,163.67 206.00,165.27 206.00,165.84 C206.00,166.40 207.37,167.93 209.04,169.24 C211.14,170.88 211.88,172.14 211.44,173.31 C210.63,175.40 209.00,175.53 209.00,173.50 C209.00,172.68 208.53,172.00 207.96,172.00 C207.30,172.00 207.02,174.66 207.21,179.16 C207.45,185.20 207.78,186.36 209.33,186.58 C213.47,187.18 214.00,187.89 214.00,192.80 C214.00,195.48 214.29,197.95 214.64,198.31 ZM 201.02 214.34 C218.61,217.80 238.04,215.54 254.36,208.14 C273.46,199.47 289.97,181.67 297.50,161.60 C301.26,151.59 303.16,137.57 301.97,128.66 C300.89,120.62 299.47,114.13 298.59,113.25 C297.11,111.78 296.71,114.47 297.80,118.55 C299.68,125.58 299.30,146.23 297.13,154.50 C294.84,163.25 291.51,171.17 287.66,177.00 C283.76,182.92 269.84,196.83 269.31,195.34 C269.08,194.70 271.22,192.00 274.07,189.34 C288.71,175.66 297.00,156.70 297.00,136.91 C297.00,126.59 295.39,128.57 294.69,139.75 C293.68,155.82 288.89,168.00 278.94,179.82 C272.18,187.86 268.66,190.47 266.34,189.17 C264.96,188.40 265.17,187.93 267.81,185.99 C275.59,180.23 286.20,163.79 289.42,152.50 C292.37,142.17 292.62,127.00 289.84,127.00 C288.30,127.00 248.51,146.50 245.12,148.92 C243.22,150.27 240.47,154.59 237.26,161.25 C232.65,170.82 232.21,172.43 230.64,185.37 C229.37,195.84 229.24,199.58 230.10,200.62 C231.62,202.45 232.44,202.39 241.69,199.71 L 249.60 197.42 L 249.78 199.58 C249.93,201.42 248.92,202.06 242.91,203.96 C227.41,208.85 212.21,209.03 196.58,204.49 C164.13,195.09 141.48,169.96 138.07,139.59 C136.94,129.52 136.00,128.79 136.00,137.98 C136.00,154.93 145.39,173.93 160.71,187.98 C173.49,199.69 188.35,206.48 208.01,209.60 C216.91,211.01 219.64,211.06 227.43,209.98 C232.42,209.29 239.86,207.68 243.96,206.40 C248.06,205.13 251.63,204.30 251.90,204.56 C254.05,206.72 240.09,211.52 227.64,212.91 C210.64,214.82 187.22,209.78 173.77,201.34 C171.72,200.05 169.58,199.00 169.02,199.00 C168.46,199.00 167.10,198.10 166.00,197.00 C164.90,195.90 164.00,195.14 164.00,195.32 C164.00,195.50 161.91,193.70 159.36,191.32 C156.81,188.94 154.33,187.00 153.86,187.00 C153.39,187.00 153.00,186.51 153.00,185.92 C153.00,185.32 151.47,182.96 149.59,180.67 C144.44,174.38 138.45,162.46 135.92,153.50 C132.69,142.04 132.69,124.53 135.92,114.00 C138.51,105.58 141.79,98.66 146.35,92.00 C150.20,86.38 156.94,79.00 158.22,79.00 C158.75,79.00 157.09,81.33 154.52,84.19 C151.96,87.04 148.32,91.69 146.45,94.52 C142.99,99.73 139.50,108.02 140.79,107.97 C141.18,107.96 143.52,104.48 146.00,100.24 C153.68,87.08 169.59,72.53 182.77,66.60 C188.57,63.99 188.13,62.56 182.25,64.88 C177.20,66.86 174.01,67.94 175.25,67.25 C176.78,66.40 176.02,63.78 174.42,64.39 C166.57,67.41 151.36,80.95 144.20,91.30 C132.53,108.19 128.71,123.84 131.48,143.42 C133.29,156.21 135.67,163.03 141.90,173.30 C153.75,192.82 178.33,209.88 201.02,214.34 ZM 194.50 199.60 C202.91,202.38 203.89,202.46 204.66,200.44 C204.99,199.58 204.34,192.41 203.20,184.51 C201.25,170.91 200.86,169.58 195.82,159.82 L 190.50 149.50 L 167.82 138.11 C154.34,131.34 144.51,126.97 143.57,127.33 C141.45,128.15 141.43,140.38 143.54,148.54 C149.74,172.55 168.03,190.87 194.50,199.60 ZM 246.80 66.35 C255.55,70.25 256.00,70.38 256.00,68.99 C256.00,68.43 254.02,67.01 251.59,65.83 C248.93,64.54 247.38,63.18 247.67,62.41 C248.21,61.01 242.28,58.94 231.77,56.88 C227.09,55.95 225.52,55.94 225.22,56.83 C224.98,57.55 222.29,58.03 218.17,58.09 C214.50,58.14 209.25,58.53 206.50,58.95 C202.35,59.60 203.40,59.76 212.66,59.87 C226.74,60.03 236.98,61.98 246.80,66.35 ZM 275.33 80.69 C279.47,83.49 280.41,83.75 283.02,82.84 C284.66,82.27 286.00,81.40 286.00,80.90 C286.00,80.41 286.62,80.00 287.38,80.00 C289.37,80.00 291.13,77.51 290.43,75.69 C290.10,74.83 289.20,74.37 288.42,74.67 C287.64,74.97 287.00,74.69 287.00,74.05 C287.00,73.41 286.55,73.16 286.00,73.50 C285.45,73.84 285.00,73.66 285.00,73.09 C285.00,72.53 284.33,72.32 283.50,72.64 C282.67,72.95 282.00,72.83 282.00,72.36 C282.00,71.89 280.87,71.44 279.50,71.36 C278.12,71.28 277.00,71.52 277.00,71.90 C277.00,72.29 275.40,73.18 273.44,73.88 C271.49,74.59 270.05,75.69 270.26,76.33 C270.46,76.98 272.74,78.94 275.33,80.69 ZM 318.00 96.60 C318.00,100.20 317.56,103.00 317.00,103.00 C316.45,103.00 316.00,100.85 316.00,98.22 C316.00,92.68 314.31,89.78 310.04,88.02 C307.08,86.79 305.91,85.00 308.07,85.00 C308.66,85.00 311.14,86.17 313.57,87.60 L 318.00 90.19 ZM 232.50 125.82 C232.74,125.94 232.96,126.06 233.18,126.17 C237.53,128.41 238.69,129.01 239.64,128.76 C240.02,128.66 240.37,128.42 240.90,128.08 C241.91,127.44 240.15,126.20 234.46,123.58 C230.15,121.59 226.28,120.08 225.85,120.23 C224.24,120.78 226.68,122.83 232.50,125.82 ZM 193.52 128.03 C193.73,128.37 193.87,128.62 194.08,128.75 C194.70,129.13 195.92,128.53 200.96,126.04 L 201.45 125.80 C207.88,122.63 211.44,119.11 206.74,120.57 C201.90,122.07 192.96,127.12 193.52,128.03 ZM 260.55 73.75 C260.14,75.11 260.29,76.00 260.93,76.00 C261.52,76.00 262.00,75.36 262.00,74.57 C262.00,73.79 263.19,72.21 264.63,71.07 C267.01,69.20 267.07,69.00 265.26,69.00 C262.99,69.00 261.57,70.44 260.55,73.75 ZM 266.00 72.50 C264.31,74.54 266.74,74.51 269.44,72.47 C271.35,71.02 271.35,71.00 269.31,71.00 C268.18,71.00 266.68,71.68 266.00,72.50 ZM 249.00 63.00 C249.00,63.55 249.45,64.00 250.00,64.00 C250.55,64.00 251.00,63.55 251.00,63.00 C251.00,62.45 250.55,62.00 250.00,62.00 C249.45,62.00 249.00,62.45 249.00,63.00 ZM 255.00 66.00 C255.00,66.55 255.45,67.00 256.00,67.00 C256.55,67.00 257.00,66.55 257.00,66.00 C257.00,65.45 256.55,65.00 256.00,65.00 C255.45,65.00 255.00,65.45 255.00,66.00 Z" fill="rgb(4,9,17)"/>
<path d="M 308.54 108.18 C309.42,107.62 310.00,107.12 310.00,106.88 C310.00,105.71 306.87,106.20 304.81,107.44 C305.26,106.58 304.65,105.98 303.00,106.50 C301.30,107.04 301.00,106.68 301.00,104.13 C301.00,102.47 301.45,100.84 302.00,100.50 C302.55,100.16 303.00,98.83 303.00,97.53 C303.00,95.68 303.42,95.30 305.00,95.71 C306.42,96.08 307.04,97.14 307.14,99.37 C307.27,102.22 307.34,102.14 307.94,98.50 C308.30,96.30 308.22,93.72 307.77,92.77 C307.12,91.40 307.32,91.17 308.73,91.64 C309.82,92.01 309.41,91.25 307.63,89.66 C304.87,87.16 304.65,87.12 301.13,88.59 C299.14,89.42 296.56,90.72 295.41,91.47 C293.57,92.68 292.81,92.55 289.06,90.42 C287.18,89.36 286.00,88.69 285.26,88.37 C285.77,88.42 286.44,88.60 287.26,88.91 C289.10,89.61 290.30,89.50 291.65,88.49 C293.43,87.15 293.42,87.04 291.25,85.49 C288.43,83.48 288.38,81.40 291.09,79.95 C292.85,79.01 294.13,79.41 299.09,82.48 C304.40,85.75 307.00,86.29 307.00,84.13 C307.00,83.94 306.68,83.62 306.16,83.24 C307.62,84.11 309.23,85.06 310.79,85.98 L 312.42 86.94 C310.40,85.83 308.57,85.00 308.07,85.00 C305.91,85.00 307.08,86.79 310.04,88.02 C314.31,89.78 316.00,92.68 316.00,98.22 C316.00,100.73 316.41,102.80 316.92,102.99 C316.60,103.51 316.15,103.71 315.50,103.82 C314.40,104.01 313.05,104.74 312.50,105.44 C312.05,106.00 310.41,107.13 308.54,108.18 ZM 214.64 198.31 C214.29,197.95 214.00,195.48 214.00,192.80 C214.00,187.89 213.47,187.18 209.33,186.58 C207.78,186.36 207.45,185.20 207.21,179.16 C207.02,174.66 207.30,172.00 207.96,172.00 C208.53,172.00 209.00,172.68 209.00,173.50 C209.00,175.53 210.63,175.40 211.44,173.31 C211.88,172.14 211.14,170.88 209.04,169.24 C207.37,167.93 206.00,166.40 206.00,165.84 C206.00,165.27 205.10,163.67 204.00,162.27 C201.78,159.45 201.37,153.79 203.07,149.32 C204.01,146.85 203.83,146.25 201.52,144.26 C201.17,143.96 200.80,143.67 200.43,143.41 L 206.15 146.50 L 205.96 152.00 C205.46,165.96 205.65,166.78 210.00,169.76 C213.97,172.48 214.00,172.54 213.80,178.50 C213.69,181.80 213.98,186.98 214.46,190.00 L 215.32 195.50 L 216.60 188.72 C217.51,183.92 217.61,180.27 216.95,176.22 C216.43,173.07 216.03,166.23 216.05,161.00 L 216.10 151.50 L 226.80 146.21 C227.42,145.90 228.05,145.60 228.66,145.31 C227.56,145.87 226.35,146.53 225.00,147.30 L 217.50 151.58 L 217.21 160.67 C216.98,168.10 217.21,169.87 218.46,170.35 C219.77,170.85 220.00,169.64 220.00,162.17 L 220.00 153.40 L 224.75 151.18 L 229.50 148.96 L 225.75 152.23 L 222.00 155.50 L 222.00 166.33 C221.99,158.76 221.61,154.00 221.00,154.00 C219.88,154.00 219.57,177.23 220.67,178.33 C221.03,178.70 221.48,179.00 221.67,179.00 C221.85,179.00 222.00,173.51 222.00,166.75 L 222.00 174.19 C222.00,185.57 221.61,193.12 221.00,193.50 C220.43,193.85 220.00,193.01 220.00,191.56 C220.00,189.95 219.44,189.00 218.50,189.00 C217.39,189.00 217.00,190.16 217.00,193.44 C217.00,197.67 216.02,199.69 214.64,198.31 ZM 300.00 137.44 C300.00,141.05 300.39,144.00 300.86,144.00 C301.29,144.00 301.63,143.42 301.87,142.42 C301.16,149.00 299.63,155.94 297.50,161.60 C289.97,181.67 273.46,199.47 254.36,208.14 C253.30,208.62 252.23,209.08 251.14,209.51 C256.92,206.90 268.25,199.91 267.59,199.26 C267.40,199.06 264.37,200.48 260.87,202.40 C256.05,205.04 250.85,207.24 245.43,208.96 C250.10,207.33 252.96,205.63 251.90,204.56 C251.66,204.33 248.89,204.94 245.45,205.95 C256.78,202.30 266.22,196.68 274.84,188.58 C280.17,183.57 285.42,176.35 289.30,169.08 C285.50,176.57 280.38,183.45 274.07,189.34 C271.22,192.00 269.08,194.70 269.31,195.34 C269.84,196.83 283.76,182.92 287.66,177.00 C291.51,171.17 294.84,163.25 297.13,154.50 C299.30,146.23 299.68,125.58 297.80,118.55 C296.71,114.47 297.11,111.78 298.59,113.25 C299.15,113.82 299.95,116.71 300.73,120.84 C300.51,120.00 300.28,119.23 300.03,118.57 C298.26,113.92 297.75,116.36 298.91,123.86 C299.51,127.72 300.00,133.83 300.00,137.44 ZM 201.02 214.34 C178.33,209.88 153.75,192.82 141.90,173.30 C136.09,163.73 133.63,157.15 131.86,145.94 C132.85,150.17 133.52,147.36 133.63,138.45 C133.93,143.86 134.69,149.12 135.92,153.50 C138.45,162.46 144.44,174.38 149.59,180.67 C151.47,182.96 153.00,185.32 153.00,185.92 C153.00,186.51 153.39,187.00 153.86,187.00 C154.33,187.00 156.81,188.94 159.36,191.32 C161.91,193.70 164.00,195.50 164.00,195.32 C164.00,195.14 164.90,195.90 166.00,197.00 C167.10,198.10 168.46,199.00 169.02,199.00 C169.58,199.00 171.72,200.05 173.77,201.34 C185.39,208.64 204.46,213.39 220.40,213.32 C217.66,213.41 214.94,213.38 212.25,213.23 C206.81,212.91 204.00,213.10 204.00,213.80 C204.00,214.26 204.63,214.78 205.51,215.09 C204.00,214.88 202.51,214.63 201.02,214.34 ZM 260.50 127.29 C251.94,131.37 241.14,136.00 239.38,136.00 C238.09,136.00 236.60,136.89 236.00,138.00 C235.41,139.10 234.44,140.00 233.83,140.00 C233.23,140.00 228.52,142.33 223.37,145.18 L 214.00 150.35 L 214.00 159.68 C214.00,164.80 213.75,169.00 213.43,169.00 C213.12,169.00 212.00,168.53 210.93,167.96 C208.69,166.76 208.33,162.05 210.24,158.99 C211.23,157.41 211.23,156.59 210.24,155.01 C207.66,150.88 208.69,146.89 213.46,142.55 L 217.92 138.50 L 218.00 134.18 L 218.00 138.68 L 213.95 142.43 C210.69,145.44 210.13,146.45 211.07,147.59 C212.87,149.76 215.18,149.32 222.95,145.32 C228.10,142.67 230.88,140.49 232.83,137.57 C234.85,134.55 237.47,132.54 243.02,129.78 C251.05,125.79 254.09,124.99 252.09,127.39 C251.45,128.16 249.60,129.34 247.97,130.01 C244.78,131.33 244.00,133.00 246.58,133.00 C247.70,133.00 254.99,129.90 260.50,127.29 ZM 246.80 66.35 C236.98,61.98 226.74,60.03 212.66,59.87 C203.40,59.76 202.35,59.60 206.50,58.95 C209.25,58.53 214.50,58.14 218.17,58.09 C222.29,58.03 224.98,57.55 225.22,56.83 C225.52,55.94 227.09,55.95 231.77,56.88 C242.28,58.94 248.21,61.01 247.67,62.41 C247.38,63.18 248.93,64.54 251.59,65.83 C254.02,67.01 256.00,68.43 256.00,68.99 C256.00,70.38 255.55,70.25 246.80,66.35 ZM 275.33 80.69 C272.74,78.94 270.46,76.98 270.26,76.33 C270.05,75.69 271.49,74.59 273.44,73.88 C275.40,73.18 277.00,72.29 277.00,71.90 C277.00,71.52 278.12,71.28 279.50,71.36 C280.87,71.44 282.00,71.89 282.00,72.36 C282.00,72.83 282.67,72.95 283.50,72.64 C284.33,72.32 285.00,72.53 285.00,73.09 C285.00,73.66 285.45,73.84 286.00,73.50 C286.55,73.16 287.00,73.41 287.00,74.05 C287.00,74.69 287.64,74.97 288.42,74.67 C289.20,74.37 290.10,74.83 290.43,75.69 C291.13,77.51 289.37,80.00 287.38,80.00 C286.62,80.00 286.00,80.41 286.00,80.90 C286.00,81.40 284.66,82.27 283.02,82.84 C280.41,83.75 279.47,83.49 275.33,80.69 ZM 178.50 122.80 L 183.38 124.67 L 177.18 122.32 C170.92,119.94 165.42,118.00 164.95,118.00 C164.48,118.00 165.07,119.46 166.27,121.25 C168.54,124.63 179.03,130.54 181.27,129.69 C181.88,129.46 181.00,128.65 179.28,127.84 C182.59,129.11 185.30,129.29 184.56,128.09 C184.36,127.78 183.73,127.38 182.88,126.98 C193.89,131.15 197.11,133.07 196.50,135.00 C195.88,136.95 197.49,138.93 201.63,141.26 L 200.17 140.52 C196.35,138.57 192.67,136.31 191.99,135.49 C191.31,134.67 190.02,134.00 189.13,134.01 C188.23,134.01 181.65,131.13 174.50,127.62 C159.56,120.27 153.02,117.63 152.13,118.60 C151.78,118.97 152.03,119.46 152.69,119.70 C153.34,119.93 155.70,121.45 157.93,123.06 C160.16,124.68 162.93,126.00 164.09,126.00 C165.20,126.00 169.28,127.62 173.32,129.65 C169.92,128.15 166.60,127.27 164.60,127.53 C161.63,127.91 160.53,127.49 158.25,125.14 C156.74,123.58 153.48,121.03 151.00,119.48 C146.03,116.37 146.94,114.88 152.16,117.58 C155.51,119.31 160.05,119.71 162.09,118.44 C163.24,117.73 162.56,117.00 158.93,115.59 C164.46,117.55 173.14,120.75 178.50,122.80 ZM 299.46 104.85 C299.42,109.95 299.80,110.63 302.62,109.20 C300.91,110.36 299.35,110.13 298.00,108.50 C297.32,107.68 296.14,107.00 295.38,107.00 C294.62,107.00 294.00,106.55 294.00,106.00 C294.00,105.45 293.31,105.00 292.47,105.00 C291.63,105.00 290.68,104.32 290.36,103.50 C290.05,102.68 289.23,102.00 288.55,102.00 C287.87,102.00 286.45,101.02 285.40,99.83 C284.36,98.63 284.06,97.99 284.75,98.39 C286.36,99.33 286.37,97.77 284.76,96.16 C283.77,95.17 283.79,94.75 284.85,94.09 C285.95,93.41 285.96,92.90 284.88,91.18 C284.44,90.47 284.17,89.89 284.08,89.44 C284.57,90.34 287.84,92.77 291.76,95.10 L 299.50 99.70 ZM 218.23 120.90 C218.45,108.05 218.30,107.50 216.49,107.50 C216.43,107.50 216.38,107.50 216.33,107.50 C215.87,107.50 215.52,107.50 215.25,107.65 C214.27,108.20 214.45,110.78 215.26,122.67 L 215.34 123.82 C216.27,137.33 216.19,137.59 209.81,142.14 L 207.94 143.47 L 209.61 141.90 C211.78,139.86 212.00,138.84 212.00,130.83 C212.00,119.91 213.79,119.06 214.26,129.75 C214.59,137.25 214.60,137.17 214.80,127.58 C214.95,120.24 214.63,117.25 213.59,116.08 C209.20,111.15 213.52,103.34 219.38,105.59 C222.56,106.81 222.60,113.54 219.45,116.69 C218.84,117.31 218.45,118.54 218.23,120.90 ZM 231.29 144.07 C235.31,142.23 238.56,140.95 239.28,140.96 C240.26,140.98 241.31,140.37 241.60,139.59 C241.90,138.82 244.44,137.20 247.25,135.99 C248.95,135.26 251.94,133.88 255.13,132.37 C250.17,134.98 246.00,137.79 246.00,139.09 C246.00,140.14 246.16,141.00 246.35,141.00 C246.55,141.00 251.41,138.78 257.16,136.07 C266.97,131.44 274.35,128.79 272.83,130.45 C272.46,130.85 265.04,134.87 256.34,139.38 C248.80,143.29 244.30,145.83 241.53,147.83 C243.37,146.41 245.76,144.87 248.42,143.43 C252.78,141.07 256.73,138.44 257.22,137.58 C258.25,135.73 257.53,135.97 245.88,141.33 C239.52,144.25 238.07,145.37 237.13,148.07 C237.05,148.29 236.97,148.51 236.90,148.74 C237.72,143.36 236.35,141.97 231.29,144.07 ZM 272.00 187.18 C267.07,191.58 261.38,195.41 254.85,198.75 C252.71,199.84 250.70,200.81 248.78,201.66 C249.66,201.06 249.85,200.46 249.78,199.58 L 249.60 197.42 L 243.65 199.14 C257.53,194.56 269.43,185.94 277.95,174.82 C274.56,179.59 270.95,183.66 267.81,185.99 C265.17,187.93 264.96,188.40 266.34,189.17 C267.69,189.92 269.44,189.36 272.00,187.18 ZM 197.08 141.65 C195.23,141.01 193.59,141.01 192.77,141.83 C191.98,142.62 192.25,143.42 193.73,144.71 C193.75,144.73 193.77,144.74 193.78,144.76 L 184.91 140.33 C179.18,137.47 173.62,135.10 172.55,135.07 C169.83,134.97 171.13,136.01 180.90,141.30 C176.71,139.09 172.31,136.85 170.00,135.75 C158.69,130.38 159.46,128.96 170.95,133.99 C183.42,139.44 184.95,139.87 182.87,137.31 C181.69,135.85 181.71,135.72 183.00,136.38 C183.82,136.81 183.38,136.17 182.00,134.97 C180.58,133.72 178.80,132.51 176.90,131.44 C180.03,132.96 182.81,134.21 183.75,134.48 C184.99,134.84 186.47,136.00 187.04,137.07 C187.61,138.13 189.01,139.00 190.17,139.00 C191.10,139.00 193.98,140.12 197.08,141.65 ZM 295.78 149.99 C296.31,145.53 294.96,146.83 292.69,154.00 C292.40,154.91 292.10,155.82 291.79,156.70 C293.36,151.49 294.30,145.91 294.69,139.75 C295.39,128.57 297.00,126.59 297.00,136.91 C297.00,141.33 296.59,145.70 295.78,149.99 ZM 163.26 79.86 C166.29,77.02 169.02,74.67 170.67,73.58 C175.85,70.18 177.56,67.14 172.97,69.51 C171.21,70.42 170.00,70.62 170.00,70.00 C170.00,69.43 171.10,68.46 172.44,67.84 C174.20,67.05 175.57,65.48 175.70,64.68 C176.27,65.35 176.26,66.69 175.25,67.25 C174.01,67.94 177.20,66.86 182.25,64.88 C188.13,62.56 188.57,63.99 182.77,66.60 C176.49,69.43 169.59,74.21 163.26,79.86 ZM 155.57 178.93 C148.95,171.39 143.95,162.72 140.92,153.25 C138.14,144.54 135.95,144.87 138.49,153.61 C141.65,164.47 148.52,175.57 157.37,184.74 C144.03,171.09 136.00,153.66 136.00,137.98 C136.00,128.79 136.94,129.52 138.07,139.59 C139.73,154.34 145.92,167.85 155.57,178.93 ZM 150.43 89.10 C147.04,93.60 144.62,97.95 145.33,98.67 C145.59,98.93 147.09,97.43 148.65,95.35 C150.16,93.34 152.66,90.53 155.47,87.58 C151.72,91.73 148.44,96.05 146.00,100.24 C143.52,104.48 141.18,107.96 140.79,107.97 C139.50,108.02 142.99,99.73 146.45,94.52 C147.43,93.04 148.89,91.06 150.43,89.10 ZM 281.39 117.73 C280.73,117.95 280.03,118.22 279.35,118.50 C277.37,119.32 274.93,120.00 273.93,120.00 C272.92,120.00 271.74,120.62 271.30,121.37 C270.92,122.01 267.25,124.00 262.50,126.32 C264.92,125.13 266.66,124.17 266.80,123.85 C268.17,120.80 272.20,118.07 275.18,118.17 C276.82,118.23 279.48,118.03 281.39,117.73 ZM 260.76 129.67 C260.95,129.58 261.14,129.49 261.32,129.39 C266.25,126.98 271.25,125.00 272.42,125.00 C273.59,125.00 275.33,124.10 276.27,123.00 C277.21,121.90 278.55,120.99 279.24,120.98 C279.67,120.97 280.32,120.71 281.01,120.32 C279.76,121.37 278.34,122.64 277.20,123.74 C274.55,126.30 273.08,126.95 270.14,126.83 C268.31,126.76 264.67,127.97 260.76,129.67 ZM 303.02 91.52 C304.81,93.68 303.84,94.02 301.86,91.94 C300.33,90.34 300.38,90.15 302.53,89.17 C304.37,88.33 304.95,88.44 305.44,89.70 C305.77,90.57 305.81,91.52 305.52,91.81 C305.24,92.10 305.00,91.81 305.00,91.17 C305.00,90.53 304.27,90.00 303.38,90.00 C302.04,90.00 301.98,90.27 303.02,91.52 ZM 260.55 73.75 C260.99,72.34 261.49,71.27 262.11,70.50 C262.04,70.65 262.00,70.80 262.00,70.95 C262.00,71.58 262.97,71.51 264.61,70.77 C266.05,70.11 266.71,69.40 266.08,69.19 C265.21,68.90 264.06,69.09 263.21,69.52 C263.81,69.17 264.48,69.00 265.26,69.00 C267.07,69.00 267.01,69.20 264.63,71.07 C263.19,72.21 262.00,73.79 262.00,74.57 C262.00,75.36 261.52,76.00 260.93,76.00 C260.29,76.00 260.14,75.11 260.55,73.75 ZM 291.25 100.28 C293.29,101.01 293.50,100.07 291.69,98.26 C290.15,96.72 290.00,96.72 290.00,98.20 C290.00,99.10 290.56,100.03 291.25,100.28 ZM 295.61 102.42 C295.94,103.29 296.65,104.00 297.19,104.00 C298.50,104.00 297.68,101.73 296.19,101.23 C295.46,100.99 295.23,101.44 295.61,102.42 ZM 249.00 63.00 C249.00,62.45 249.45,62.00 250.00,62.00 C250.55,62.00 251.00,62.45 251.00,63.00 C251.00,63.55 250.55,64.00 250.00,64.00 C249.45,64.00 249.00,63.55 249.00,63.00 ZM 255.00 66.00 C255.00,65.45 255.45,65.00 256.00,65.00 C256.55,65.00 257.00,65.45 257.00,66.00 C257.00,66.55 256.55,67.00 256.00,67.00 C255.45,67.00 255.00,66.55 255.00,66.00 ZM 306.00 105.00 C306.00,105.55 306.45,106.00 307.00,106.00 C307.55,106.00 308.00,105.55 308.00,105.00 C308.00,104.45 307.55,104.00 307.00,104.00 C306.45,104.00 306.00,104.45 306.00,105.00 ZM 208.85 207.09 C204.51,206.76 201.40,206.06 196.70,204.64 C193.34,203.62 190.09,202.45 186.95,201.13 C190.05,202.41 193.26,203.53 196.58,204.49 C200.70,205.69 204.78,206.55 208.85,207.09 ZM 134.75 118.83 C135.80,112.81 137.69,107.56 140.75,101.50 C141.11,100.78 141.51,100.03 141.94,99.26 C139.54,103.78 137.59,108.58 135.92,114.00 C135.47,115.48 135.08,117.10 134.75,118.83 ZM 130.75 136.25 C130.38,129.94 130.78,124.00 131.99,118.23 C131.04,123.16 130.58,130.24 130.75,136.25 ZM 163.19 71.59 C167.43,68.18 171.45,65.53 174.42,64.39 C173.53,64.74 170.29,66.69 167.19,68.75 C165.83,69.65 164.50,70.60 163.19,71.59 ZM 188.52 126.62 L 198.50 121.99 C207.85,117.66 208.52,117.15 208.81,114.18 C208.89,113.43 208.92,112.86 208.90,112.42 C208.97,112.83 209.00,113.37 209.00,114.05 C209.00,116.94 208.47,117.35 198.78,121.87 L 188.55 126.63 ZM 155.61 114.40 C155.18,114.25 154.73,114.10 154.26,113.94 C150.83,112.79 147.77,111.43 147.45,110.92 C146.41,109.23 150.28,102.80 155.64,96.05 C150.13,103.02 146.22,109.62 147.65,111.05 C148.04,111.44 151.39,112.83 155.61,114.40 ZM 132.71 115.23 C134.84,107.16 138.62,99.37 144.20,91.30 C144.99,90.16 145.89,88.97 146.85,87.76 C140.30,96.20 135.34,105.69 132.71,115.23 ZM 150.46 86.61 C153.87,82.24 157.00,79.00 158.21,79.00 L 158.21 79.00 C157.31,79.02 153.80,82.56 150.46,86.61 ZM 244.09 203.58 C239.86,205.14 235.87,206.14 231.46,206.72 C235.27,206.09 239.08,205.17 242.91,203.96 C243.33,203.83 243.72,203.70 244.09,203.58 ZM 291.79 134.92 C291.62,130.59 290.86,127.00 289.84,127.00 C291.14,127.00 291.78,130.32 291.79,134.92 ZM 282.79 174.88 C280.16,178.74 277.17,182.28 273.79,185.52 C275.27,184.06 276.97,182.17 278.94,179.82 C280.32,178.18 281.60,176.54 282.79,174.88 ZM 196.98 150.43 C198.13,153.25 198.85,156.00 198.09,156.00 C198.02,156.00 197.92,155.95 197.81,155.85 C198.46,156.19 198.33,154.40 197.10,150.76 ZM 210.05 215.60 C212.38,215.72 215.44,215.82 218.50,215.86 C219.52,215.87 220.53,215.86 221.55,215.84 C217.70,216.00 213.86,215.93 210.05,215.60 ZM 299.00 77.54 C298.07,76.51 295.12,74.91 291.73,73.40 C295.67,75.08 298.95,76.80 299.00,77.54 ZM 287.43 158.07 C288.73,154.75 289.77,151.32 290.53,147.80 C290.22,149.43 289.85,151.01 289.42,152.50 C288.92,154.25 288.24,156.13 287.43,158.07 ZM 237.26 152.30 L 235.74 154.50 L 236.05 153.04 C236.19,153.28 236.65,152.99 237.26,152.30 ZM 182.28 202.24 C186.21,203.94 190.53,205.50 194.88,206.77 C190.43,205.52 186.24,204.02 182.28,202.24 ZM 284.14 117.93 C284.45,117.58 284.61,117.29 284.52,117.14 L 285.50 116.95 ZM 303.88 81.89 C303.73,81.81 303.56,81.73 303.40,81.65 C302.62,81.28 301.86,80.80 301.21,80.29 C301.22,80.30 301.24,80.31 301.25,80.32 C301.73,80.61 302.67,81.17 303.88,81.89 ZM 176.71 126.63 C175.30,125.88 174.79,125.36 175.01,125.11 C175.07,125.48 175.75,126.06 176.71,126.63 ZM 232.24 209.18 C230.53,209.50 228.88,209.78 227.43,209.98 C226.67,210.09 225.96,210.18 225.28,210.26 C226.77,210.06 228.43,209.81 230.36,209.50 C231.00,209.40 231.62,209.29 232.24,209.18 ZM 237.94 200.77 C235.58,201.42 234.05,201.77 232.98,201.86 C234.02,201.75 235.54,201.39 237.94,200.77 ZM 318.00 90.23 L 318.08 90.28 L 318.00 92.20 ZM 302.13 130.08 C302.19,130.74 302.24,131.43 302.27,132.15 C302.23,131.46 302.18,130.77 302.13,130.08 Z" fill="rgb(34,57,74)"/>
<path d="M 163.26 79.86 C160.53,82.30 157.90,84.90 155.47,87.58 C152.66,90.53 150.16,93.34 148.65,95.35 C147.09,97.43 145.59,98.93 145.33,98.67 C144.62,97.95 147.04,93.60 150.43,89.10 C151.83,87.31 153.30,85.55 154.52,84.19 C157.09,81.33 158.75,79.00 158.22,79.00 L 158.21 79.00 L 158.21 79.00 C157.00,79.00 153.87,82.24 150.46,86.61 C148.98,88.39 147.53,90.28 146.35,92.00 C144.73,94.37 143.27,96.77 141.94,99.26 C141.51,100.03 141.11,100.78 140.75,101.50 C137.69,107.56 135.80,112.81 134.75,118.83 C133.64,124.67 133.27,131.68 133.63,138.45 C133.52,147.36 132.85,150.17 131.86,145.94 C131.73,145.13 131.60,144.28 131.48,143.42 C131.13,140.97 130.89,138.58 130.75,136.25 C130.58,130.24 131.04,123.16 131.99,118.23 C132.21,117.23 132.44,116.23 132.71,115.23 C135.34,105.69 140.30,96.20 146.85,87.76 C151.33,82.20 157.46,76.20 163.19,71.59 C164.50,70.60 165.83,69.65 167.19,68.75 C170.29,66.69 173.53,64.74 174.42,64.39 C174.96,64.19 175.40,64.35 175.70,64.68 C175.57,65.48 174.20,67.05 172.44,67.84 C171.10,68.46 170.00,69.43 170.00,70.00 C170.00,70.62 171.21,70.42 172.97,69.51 C177.56,67.14 175.85,70.18 170.67,73.58 C169.02,74.67 166.29,77.02 163.26,79.86 ZM 218.23 120.90 C218.07,122.69 218.00,125.12 218.00,128.41 L 218.00 134.18 L 217.92 138.50 L 213.46 142.55 C208.97,146.64 207.79,150.41 209.82,154.29 C209.72,154.19 209.62,154.10 209.50,154.00 C208.68,153.32 208.00,151.33 208.00,149.58 C208.00,146.38 206.50,143.97 204.55,144.03 C203.97,144.05 204.29,144.52 205.25,145.08 C207.17,146.20 207.66,151.90 206.08,154.85 C205.98,155.03 205.90,155.25 205.84,155.49 C205.87,154.42 205.91,153.27 205.96,152.00 L 206.15 146.50 L 200.43 143.41 C199.32,142.63 198.17,142.03 197.08,141.65 C193.98,140.12 191.10,139.00 190.17,139.00 C189.01,139.00 187.61,138.13 187.04,137.07 C186.86,136.74 186.60,136.41 186.29,136.09 C187.60,137.12 189.58,137.95 190.80,137.97 C194.14,138.02 192.54,135.74 188.36,133.82 C188.73,133.94 188.99,134.01 189.13,134.01 C190.02,134.00 191.31,134.67 191.99,135.49 C192.67,136.31 196.35,138.57 200.17,140.52 L 201.63 141.26 C202.12,141.54 202.65,141.82 203.21,142.11 L 207.21 144.15 L 207.94 143.47 L 209.81 142.14 C216.19,137.59 216.27,137.33 215.34,123.82 L 215.26 122.67 C214.45,110.78 214.27,108.20 215.25,107.65 C215.52,107.50 215.87,107.50 216.33,107.50 C216.38,107.50 216.43,107.50 216.49,107.50 C217.20,107.50 217.65,107.59 217.93,108.47 C217.53,108.18 216.98,108.00 216.32,108.00 C215.10,108.00 214.89,108.69 215.38,111.12 C215.72,112.84 216.09,116.78 216.19,119.88 L 216.39 125.50 L 216.75 119.04 C216.94,115.48 217.57,112.02 218.14,111.33 C218.18,111.28 218.22,111.23 218.26,111.18 C218.34,113.16 218.31,116.21 218.23,120.90 ZM 210.05 215.60 C208.53,215.47 207.02,215.30 205.51,215.09 C204.63,214.78 204.00,214.26 204.00,213.80 C204.00,213.10 206.81,212.91 212.25,213.23 C214.94,213.38 217.66,213.41 220.40,213.32 C222.90,213.30 225.33,213.17 227.64,212.91 C233.95,212.21 240.64,210.63 245.43,208.96 C250.85,207.24 256.05,205.04 260.87,202.40 C264.37,200.48 267.40,199.06 267.59,199.26 C268.25,199.91 256.92,206.90 251.14,209.51 C241.86,213.25 231.71,215.40 221.55,215.84 L 221.55 215.84 C220.53,215.86 219.52,215.87 218.50,215.86 C215.44,215.82 212.38,215.72 210.05,215.60 ZM 284.08 89.44 C283.91,88.64 284.31,88.28 285.26,88.37 C286.00,88.69 287.18,89.36 289.06,90.42 C292.81,92.55 293.57,92.68 295.41,91.47 C296.56,90.72 299.14,89.42 301.13,88.59 C304.65,87.12 304.87,87.16 307.63,89.66 C309.41,91.25 309.82,92.01 308.73,91.64 C307.32,91.17 307.12,91.40 307.77,92.77 C308.22,93.72 308.30,96.30 307.94,98.50 C307.34,102.14 307.27,102.22 307.14,99.37 C307.04,97.14 306.42,96.08 305.00,95.71 C303.42,95.30 303.00,95.68 303.00,97.53 C303.00,97.99 302.94,98.46 302.84,98.88 C301.81,97.84 295.96,95.00 294.66,95.00 C293.03,95.00 294.28,96.65 297.13,98.28 C297.67,98.58 298.12,98.85 298.49,99.10 L 291.76 95.10 C287.84,92.77 284.57,90.34 284.08,89.44 ZM 206.33 160.37 C207.17,163.09 207.59,163.60 207.81,162.16 C207.98,161.05 208.77,159.61 209.56,158.95 C210.47,158.20 210.92,157.38 210.93,156.55 C211.09,157.31 210.86,158.00 210.24,158.99 C208.33,162.05 208.69,166.76 210.93,167.96 C212.00,168.53 213.12,169.00 213.43,169.00 C213.75,169.00 214.00,164.80 214.00,159.68 L 214.00 150.35 L 223.37 145.18 C228.52,142.33 233.23,140.00 233.83,140.00 C233.90,140.00 233.96,139.99 234.04,139.97 C232.87,141.16 232.00,142.29 232.00,142.88 C232.00,143.17 232.54,142.86 233.20,142.20 C233.86,141.54 235.90,141.00 237.73,141.00 C239.67,141.00 241.29,140.41 241.60,139.59 C241.31,140.37 240.26,140.98 239.28,140.96 C238.56,140.95 235.31,142.23 231.29,144.07 C230.50,144.40 229.63,144.81 228.66,145.31 C228.05,145.60 227.42,145.90 226.80,146.21 L 216.10 151.50 L 216.05 161.00 C216.04,164.72 216.24,169.26 216.54,172.71 C215.84,167.80 215.09,165.06 214.63,165.80 C214.19,166.51 214.07,167.75 214.38,168.55 C214.69,169.35 214.61,170.00 214.22,170.00 C213.89,170.00 213.69,171.42 213.62,173.35 C213.22,171.98 212.23,171.29 210.00,169.76 C206.37,167.27 205.64,166.29 205.78,157.92 C205.88,158.67 206.06,159.49 206.33,160.37 ZM 272.00 187.18 C272.56,186.70 273.15,186.15 273.79,185.52 C277.17,182.28 280.16,178.74 282.79,174.88 C286.88,169.14 289.83,163.21 291.79,156.70 C292.10,155.82 292.40,154.91 292.69,154.00 C294.96,146.83 296.31,145.53 295.78,149.99 C294.54,156.63 292.35,163.06 289.30,169.08 C290.02,167.39 290.50,165.81 290.12,165.58 C289.38,165.12 283.55,173.56 279.48,181.00 C278.68,182.45 281.72,180.22 283.87,177.93 C281.06,181.95 277.96,185.64 274.84,188.58 C268.47,194.57 261.65,199.20 253.95,202.68 C259.22,200.23 263.79,197.23 267.79,193.64 C271.25,190.54 273.86,188.00 273.59,188.00 C273.32,188.00 271.15,189.31 268.78,190.92 C265.51,193.12 261.00,195.65 256.29,197.99 C262.22,194.83 267.44,191.25 272.00,187.18 ZM 184.65 143.29 C183.46,142.65 182.19,141.98 180.90,141.30 C171.13,136.01 169.83,134.97 172.55,135.07 C173.62,135.10 179.18,137.47 184.91,140.33 L 193.78 144.76 C194.75,145.65 196.02,148.06 196.98,150.43 L 197.10 150.76 C198.33,154.40 198.46,156.19 197.81,155.85 C197.27,155.39 196.35,153.89 195.55,152.11 C194.07,148.82 192.38,147.46 184.65,143.29 ZM 182.28 202.24 C174.31,198.66 167.24,193.96 160.71,187.98 C159.56,186.92 158.45,185.84 157.37,184.74 C156.31,183.64 155.28,182.52 154.29,181.38 C155.44,182.47 156.38,183.00 157.13,183.00 C159.01,183.00 158.80,182.51 155.28,178.69 C153.11,176.33 150.07,172.21 148.51,169.49 C150.60,172.80 152.96,175.95 155.57,178.93 C163.76,188.33 174.44,195.98 186.95,201.13 C188.74,201.89 190.58,202.59 192.44,203.25 C186.56,201.25 180.33,198.76 176.80,196.93 C175.71,196.36 174.84,196.45 174.39,197.17 C173.96,197.87 174.14,198.03 174.85,197.60 C175.48,197.20 176.00,197.26 176.00,197.73 C176.00,198.63 183.70,202.61 189.81,205.15 C187.21,204.26 184.67,203.28 182.28,202.24 ZM 237.26 152.30 C236.65,152.99 236.19,153.28 236.05,153.04 L 236.48 151.00 C236.66,150.18 236.80,149.43 236.90,148.74 C236.97,148.51 237.05,148.29 237.13,148.07 C238.07,145.37 239.52,144.25 245.88,141.33 C257.53,135.97 258.25,135.73 257.22,137.58 C256.73,138.44 252.78,141.07 248.42,143.43 C245.76,144.87 243.37,146.41 241.53,147.83 C239.86,149.04 238.82,150.05 238.13,151.04 ZM 300.00 137.44 C300.00,133.83 299.51,127.72 298.91,123.86 C297.75,116.36 298.26,113.92 300.03,118.57 C300.28,119.23 300.51,120.00 300.73,120.84 C301.16,123.13 301.58,125.80 301.97,128.66 C302.03,129.12 302.08,129.59 302.13,130.08 C302.18,130.77 302.23,131.46 302.27,132.15 C302.41,135.27 302.27,138.79 301.87,142.42 C301.63,143.42 301.29,144.00 300.86,144.00 C300.39,144.00 300.00,141.05 300.00,137.44 ZM 185.23 132.59 C182.52,131.60 178.75,130.18 176.25,129.21 C173.36,128.09 171.00,127.32 171.00,127.50 C171.00,127.92 174.29,129.97 177.35,131.66 C177.20,131.59 177.05,131.51 176.90,131.44 C175.73,130.78 174.52,130.17 173.32,129.65 C169.28,127.62 165.20,126.00 164.09,126.00 C163.61,126.00 162.85,125.77 161.96,125.39 C163.07,125.34 164.04,124.63 163.71,123.63 C163.27,122.29 159.00,121.47 159.00,122.73 C159.00,123.09 159.28,123.68 159.68,124.21 C159.08,123.86 158.49,123.47 157.93,123.06 C155.70,121.45 153.34,119.93 152.69,119.70 C152.03,119.46 151.78,118.97 152.13,118.60 C153.02,117.63 159.56,120.27 174.50,127.62 C178.58,129.62 182.47,131.42 185.23,132.59 ZM 232.50 125.82 C226.68,122.83 224.24,120.78 225.85,120.23 C226.28,120.08 230.15,121.59 234.46,123.58 C240.15,126.20 241.91,127.44 240.90,128.08 C240.37,128.42 240.02,128.66 239.64,128.76 C238.69,129.01 237.53,128.41 233.18,126.17 L 233.18 126.17 C232.96,126.06 232.74,125.94 232.50,125.82 ZM 222.00 166.75 C222.00,173.51 221.85,179.00 221.67,179.00 C221.48,179.00 221.03,178.70 220.67,178.33 C219.57,177.23 219.88,154.00 221.00,154.00 C221.61,154.00 221.99,158.76 222.00,166.32 L 222.00 166.75 ZM 146.18 165.52 C144.33,162.52 143.68,162.08 142.89,162.57 C142.46,162.83 142.60,163.78 143.21,165.23 C141.22,161.39 139.62,157.49 138.49,153.61 C135.95,144.87 138.14,144.54 140.92,153.25 C142.29,157.51 144.05,161.61 146.18,165.52 ZM 193.52 128.03 C192.96,127.12 201.90,122.07 206.74,120.57 C211.44,119.11 207.88,122.63 201.45,125.80 L 200.96 126.04 C195.92,128.53 194.70,129.13 194.08,128.75 C193.87,128.62 193.73,128.37 193.52,128.03 ZM 284.14 117.93 L 283.03 118.73 C282.50,119.10 281.79,119.67 281.01,120.32 C280.32,120.71 279.67,120.97 279.24,120.98 C278.55,120.99 277.21,121.90 276.27,123.00 C275.33,124.10 273.59,125.00 272.42,125.00 C271.33,125.00 266.98,126.69 262.43,128.86 C266.74,126.79 270.97,124.97 272.23,124.66 C275.73,123.78 276.73,121.00 273.55,121.00 C272.59,121.00 271.68,121.21 271.19,121.51 C271.24,121.46 271.28,121.41 271.30,121.37 C271.74,120.62 272.92,120.00 273.93,120.00 C274.93,120.00 277.37,119.32 279.35,118.50 C280.03,118.22 280.73,117.95 281.39,117.73 C281.61,117.69 281.81,117.66 282.00,117.62 L 284.52 117.14 C284.61,117.29 284.45,117.58 284.14,117.93 ZM 214.44 183.91 C215.08,184.94 215.49,184.93 216.55,183.85 C217.11,183.27 217.38,182.47 217.37,180.78 C217.42,183.23 217.16,185.76 216.60,188.72 L 215.32 195.50 L 214.46 190.00 C214.06,187.46 213.79,183.42 213.78,180.23 C213.92,182.00 214.15,183.43 214.44,183.91 ZM 155.66 84.25 C156.55,85.71 157.83,84.96 159.83,81.79 C162.67,77.31 161.36,76.15 157.99,80.17 C156.46,82.00 155.41,83.84 155.66,84.25 ZM 181.75 126.55 C182.14,126.69 182.52,126.84 182.88,126.98 C183.73,127.38 184.36,127.78 184.56,128.09 C185.30,129.29 182.59,129.11 179.28,127.84 C179.11,127.76 178.93,127.68 178.75,127.60 C177.93,127.24 177.25,126.92 176.71,126.63 C175.75,126.06 175.07,125.48 175.01,125.11 C175.38,124.70 177.87,125.09 181.75,126.55 ZM 303.02 91.52 C301.98,90.27 302.04,90.00 303.38,90.00 C304.27,90.00 305.00,90.53 305.00,91.17 C305.00,91.81 305.24,92.10 305.52,91.81 C305.81,91.52 305.77,90.57 305.44,89.70 C304.95,88.44 304.37,88.33 302.53,89.17 C300.38,90.15 300.33,90.34 301.86,91.94 C303.84,94.02 304.81,93.68 303.02,91.52 ZM 266.00 72.50 C266.68,71.68 268.18,71.00 269.31,71.00 C271.35,71.00 271.35,71.02 269.44,72.47 C266.74,74.51 264.31,74.54 266.00,72.50 ZM 262.00 70.95 C262.00,70.80 262.04,70.65 262.11,70.50 C262.44,70.09 262.81,69.76 263.21,69.52 C264.06,69.09 265.21,68.90 266.08,69.19 C266.71,69.40 266.05,70.11 264.61,70.77 C262.97,71.51 262.00,71.58 262.00,70.95 ZM 291.25 100.28 C290.56,100.03 290.00,99.10 290.00,98.20 C290.00,96.72 290.15,96.72 291.69,98.26 C293.50,100.07 293.29,101.01 291.25,100.28 ZM 295.61 102.42 C295.23,101.44 295.46,100.99 296.19,101.23 C297.68,101.73 298.50,104.00 297.19,104.00 C296.65,104.00 295.94,103.29 295.61,102.42 ZM 306.00 105.00 C306.00,104.45 306.45,104.00 307.00,104.00 C307.55,104.00 308.00,104.45 308.00,105.00 C308.00,105.55 307.55,106.00 307.00,106.00 C306.45,106.00 306.00,105.55 306.00,105.00 ZM 299.46 104.85 L 299.50 100.05 C300.10,100.97 300.04,102.22 299.77,105.03 C299.60,106.80 299.55,108.03 299.69,108.81 C299.48,108.02 299.44,106.74 299.46,104.85 ZM 235.80 138.34 C235.87,138.23 235.94,138.12 236.00,138.00 C236.60,136.89 238.09,136.00 239.38,136.00 C240.22,136.00 243.14,134.94 246.88,133.39 C243.19,134.93 240.36,136.00 239.69,136.00 C238.93,136.00 237.34,137.04 235.80,138.34 ZM 254.92 129.88 C256.81,129.03 258.70,128.14 260.50,127.29 C261.20,126.95 261.88,126.63 262.50,126.32 C266.50,124.37 269.74,122.64 270.89,121.77 C270.86,121.80 270.85,121.83 270.83,121.87 C270.57,122.54 262.70,126.38 254.92,129.88 ZM 239.09 205.19 C238.71,205.31 238.35,205.41 238.00,205.50 C235.60,206.13 232.86,206.62 229.94,206.96 C230.45,206.89 230.95,206.81 231.46,206.72 C234.11,206.37 236.61,205.87 239.09,205.19 ZM 182.48 134.00 C182.87,134.03 183.48,134.26 184.14,134.62 C184.01,134.56 183.88,134.52 183.75,134.48 C183.47,134.40 183.04,134.23 182.48,134.00 ZM 230.36 209.50 C228.43,209.81 226.77,210.06 225.28,210.26 C225.23,210.27 225.18,210.28 225.14,210.28 C226.66,210.08 228.37,209.82 230.36,209.50 ZM 217.32 179.48 C217.30,179.11 217.26,178.70 217.22,178.26 C217.26,178.67 217.29,179.07 217.32,179.48 ZM 301.37 109.74 C301.72,109.63 302.14,109.44 302.62,109.20 C302.14,109.44 301.72,109.63 301.37,109.74 Z" fill="rgb(103,136,151)"/>
<path d="M 0.00 144.00 L 0.00 0.00 L 264.00 0.00 L 528.00 0.00 L 528.00 144.00 L 528.00 288.00 L 264.00 288.00 L 0.00 288.00 L 0.00 144.00 ZM 236.97 222.33 C278.14,213.70 307.76,177.99 307.37,137.50 C307.29,128.82 305.65,118.41 303.49,112.81 C302.99,111.54 303.89,110.59 307.16,108.92 C309.54,107.70 311.94,106.14 312.50,105.44 C313.05,104.74 314.40,104.01 315.50,103.82 C317.23,103.53 317.54,102.58 317.79,96.88 L 318.08 90.28 L 310.79 85.98 C306.78,83.62 302.49,81.07 301.25,80.32 C300.01,79.57 299.00,78.32 299.00,77.55 C299.00,75.83 280.66,68.53 278.46,69.38 C277.61,69.70 274.61,68.85 271.77,67.48 C268.94,66.12 266.31,65.00 265.91,65.00 C265.52,65.00 260.99,63.00 255.85,60.55 C241.68,53.80 230.92,51.73 213.00,52.29 C196.53,52.81 189.88,54.26 177.09,60.15 C160.78,67.65 149.40,77.09 140.48,90.49 C128.95,107.82 124.47,126.40 126.97,146.50 C129.26,164.83 136.51,180.00 149.66,193.98 C172.96,218.75 204.79,229.08 236.97,222.33 ZM 207.00 209.52 C202.88,208.81 197.48,207.69 195.00,207.03 C189.58,205.57 176.00,198.92 176.00,197.73 C176.00,197.26 175.48,197.20 174.85,197.60 C174.14,198.03 173.96,197.87 174.39,197.17 C174.84,196.45 175.71,196.36 176.80,196.93 C181.60,199.42 191.38,203.13 198.50,205.15 C209.30,208.22 227.09,208.37 238.00,205.50 C245.58,203.50 260.84,196.27 268.78,190.92 C271.15,189.31 273.32,188.00 273.59,188.00 C273.86,188.00 271.25,190.54 267.79,193.64 C258.72,201.78 246.72,206.86 230.36,209.50 C219.52,211.24 217.14,211.24 207.00,209.52 ZM 194.50 199.60 C168.03,190.87 149.74,172.55 143.54,148.54 C141.43,140.38 141.45,128.15 143.57,127.33 C144.51,126.97 154.34,131.34 167.82,138.11 L 190.50 149.50 L 195.82 159.82 C200.86,169.58 201.25,170.91 203.20,184.51 C204.34,192.41 204.99,199.58 204.66,200.44 C203.89,202.46 202.91,202.38 194.50,199.60 ZM 230.10 200.62 C229.24,199.58 229.37,195.84 230.64,185.37 C232.21,172.43 232.65,170.82 237.26,161.25 C240.47,154.59 243.22,150.27 245.12,148.92 C248.51,146.50 288.30,127.00 289.84,127.00 C291.38,127.00 292.33,135.20 291.54,141.76 C288.19,169.67 267.22,193.19 239.19,200.45 C231.90,202.34 231.53,202.35 230.10,200.62 ZM 214.44 183.91 C213.45,182.30 213.25,170.00 214.22,170.00 C214.61,170.00 214.69,169.35 214.38,168.55 C214.07,167.75 214.19,166.51 214.63,165.80 C215.11,165.02 215.92,168.10 216.65,173.50 C217.64,180.84 217.62,182.75 216.55,183.85 C215.49,184.93 215.08,184.94 214.44,183.91 ZM 150.39 176.75 C144.81,169.17 141.71,163.30 142.89,162.57 C143.94,161.92 144.75,162.91 148.48,169.44 C150.03,172.15 153.09,176.31 155.28,178.69 C158.80,182.51 159.01,183.00 157.13,183.00 C155.67,183.00 153.54,181.02 150.39,176.75 ZM 279.48 181.00 C283.55,173.56 289.38,165.12 290.12,165.58 C290.99,166.11 287.39,173.67 284.68,177.00 C282.62,179.54 278.57,182.65 279.48,181.00 ZM 206.33 160.37 C205.59,157.96 205.50,155.94 206.08,154.85 C207.66,151.90 207.17,146.20 205.25,145.08 C204.29,144.52 203.97,144.05 204.55,144.03 C206.50,143.97 208.00,146.38 208.00,149.58 C208.00,151.33 208.68,153.32 209.50,154.00 C211.39,155.57 211.41,157.41 209.56,158.95 C208.77,159.61 207.98,161.05 207.81,162.16 C207.59,163.60 207.17,163.09 206.33,160.37 ZM 232.00 142.88 C232.00,141.34 237.97,136.00 239.69,136.00 C242.02,136.00 270.34,123.15 270.83,121.87 C271.02,121.39 272.24,121.00 273.55,121.00 C276.73,121.00 275.73,123.78 272.23,124.66 C270.83,125.01 265.78,127.21 261.02,129.54 C256.26,131.88 250.06,134.78 247.25,135.99 C244.44,137.20 241.90,138.82 241.60,139.59 C241.29,140.41 239.67,141.00 237.73,141.00 C235.90,141.00 233.86,141.54 233.20,142.20 C232.54,142.86 232.00,143.17 232.00,142.88 ZM 186.14 135.97 C184.84,134.89 183.16,134.00 182.40,134.00 C181.13,134.00 171.00,128.23 171.00,127.50 C171.00,127.32 173.36,128.09 176.25,129.21 C179.14,130.33 183.71,132.04 186.40,133.02 C191.97,135.04 194.62,138.02 190.80,137.97 C189.53,137.95 187.44,137.05 186.14,135.97 ZM 178.50 122.80 C173.00,120.70 164.00,117.38 158.50,115.44 C153.01,113.50 148.12,111.52 147.65,111.05 C144.94,108.34 161.53,86.86 171.77,79.82 C189.93,67.32 214.54,62.77 235.45,68.03 C247.72,71.13 252.74,73.87 260.17,81.58 C263.84,85.39 271.18,92.93 276.47,98.35 C282.19,104.19 285.98,108.86 285.80,109.83 C285.59,110.90 281.08,113.09 272.49,116.28 C265.35,118.93 256.30,122.29 252.39,123.75 L 245.29 126.39 L 235.14 121.52 C225.82,117.05 225.00,116.42 225.00,113.83 C225.00,111.75 225.49,111.00 226.83,111.00 C227.84,111.00 228.98,110.69 229.36,110.31 C230.30,109.36 218.95,98.00 217.06,98.00 C215.53,98.00 204.00,108.79 204.00,110.22 C204.00,110.65 205.15,111.00 206.56,111.00 C208.84,111.00 209.09,111.35 208.81,114.18 C208.52,117.15 207.85,117.66 198.50,121.99 L 188.50 126.63 L 178.50 122.80 ZM 160.12 124.72 C159.50,124.10 159.00,123.21 159.00,122.73 C159.00,121.47 163.27,122.29 163.71,123.63 C164.24,125.22 161.47,126.07 160.12,124.72 ZM 216.19 119.88 C216.09,116.78 215.72,112.84 215.38,111.12 C214.89,108.69 215.10,108.00 216.32,108.00 C218.43,108.00 219.41,109.80 218.14,111.33 C217.57,112.02 216.94,115.48 216.75,119.04 L 216.39 125.50 L 216.19 119.88 ZM 299.77 105.03 C300.23,100.30 300.10,99.96 297.13,98.28 C294.28,96.65 293.03,95.00 294.66,95.00 C296.09,95.00 303.00,98.43 303.00,99.13 C303.00,99.55 302.55,100.16 302.00,100.50 C301.45,100.84 301.00,102.47 301.00,104.13 C301.00,106.68 301.30,107.04 303.00,106.50 C305.57,105.68 305.62,107.60 303.07,108.96 C299.76,110.73 299.28,110.16 299.77,105.03 ZM 155.66 84.25 C155.41,83.84 156.46,82.00 157.99,80.17 C161.36,76.15 162.67,77.31 159.83,81.79 C157.83,84.96 156.55,85.71 155.66,84.25 Z" fill="rgb(254,254,254)"/>
</g>
</svg>